<svg xmlns="http://www.w3.org/2000/svg" viewBox="0 0 448 512"><!--!Font Awesome Free 6.5.1 by @fontawesome - https://fontawesome.com License - https://fontawesome.com/license/free Copyright 2024 Fonticons, Inc.--><path d="M268 416h24a12 12 0 0 0 12-12V188a12 12 0 0 0 -12-12h-24a12 12 0 0 0 -12 12v216a12 12 0 0 0 12 12zM432 80h-82.4l-34-56.7A48 48 0 0 0 274.4 0H173.6a48 48 0 0 0 -41.2 23.3L98.4 80H16A16 16 0 0 0 0 96v16a16 16 0 0 0 16 16h16v336a48 48 0 0 0 48 48h288a48 48 0 0 0 48-48V128h16a16 16 0 0 0 16-16V96a16 16 0 0 0 -16-16zM171.8 50.9A6 6 0 0 1 177 48h94a6 6 0 0 1 5.2 2.9L293.6 80H154.4zM368 464H80V128h288zm-212-48h24a12 12 0 0 0 12-12V188a12 12 0 0 0 -12-12h-24a12 12 0 0 0 -12 12v216a12 12 0 0 0 12 12z"/></svg>